<svg xmlns="http://www.w3.org/2000/svg" viewBox="0 0 64 64">
  <defs>
    <linearGradient id="g" x1="0" y1="0" x2="1" y2="1">
      <stop offset="0" stop-color="#ff375f"/>
      <stop offset="1" stop-color="#e80b2c"/>
    </linearGradient>
  </defs>
  <rect width="64" height="64" rx="16" fill="url(#g)"/>
  <path fill="#fff" d="M39.4 15.5v25.4c0 6.3-4.7 10.4-10.1 10.4-4.6 0-8.2-2.8-8.2-6.5 0-4.1 3.8-7 8.9-7 1.6 0 3 .3 4.2.8V22.1l17.1-3.7v8.1l-11.9 2.6v11.1c0 6.2-4.6 10.3-10 10.3-.7 0-1.3-.1-1.9-.2 4.1-.9 6.8-4.1 6.8-8.1V16.6l5.1-1.1Z"/>
</svg>
